<svg xmlns="http://www.w3.org/2000/svg" viewBox="0 0 196.73 60"><defs><style>.cls-1{fill:#ee4036;}</style></defs><title>logo</title><g id="Layer_2" data-name="Layer 2"><g id="pages"><path class="cls-1" d="M14.55,48.63a2.68,2.68,0,0,1-1-.42l-11.39-11C1.6,36.65,1.21,36.27,1,36a4.08,4.08,0,0,1-.67-1A2.89,2.89,0,0,1,0,33.71V32.12a2.86,2.86,0,0,1,.33-1.34A4,4,0,0,1,1,29.84c.19-.21.61-.6,1.23-1.18L13.54,17.32a1.6,1.6,0,0,1,1-.32,1.24,1.24,0,0,1,1,.4,1.41,1.41,0,0,1,.38,1v1.82a4.24,4.24,0,0,1,0,.53c0,.16-.06.3-.08.42a1.3,1.3,0,0,1-.2.42,2.26,2.26,0,0,0-.19.34,1.83,1.83,0,0,1-.3.36c-.17.17-.26.27-.29.29l-.39.35-.39.36L5.2,32.35a.66.66,0,0,0,0,1.16L14,42.26a5,5,0,0,1,.39.34c.18.16.31.27.37.34l.31.3a2.45,2.45,0,0,1,.3.33l.21.32a1.34,1.34,0,0,1,.18.39c0,.12,0,.26.08.42a4.24,4.24,0,0,1,0,.53v2.05a1.36,1.36,0,0,1-.38.95A1.18,1.18,0,0,1,14.55,48.63Z"/><path class="cls-1" d="M25.59,60c-.23,0-.35-.28-.35-.84a1.05,1.05,0,0,1,0-.13,1.28,1.28,0,0,0,0-.17l9.16-57.7c.13-.75.36-1.13.7-1.13H40.5q.39,0,.39.81a.82.82,0,0,1,0,.32L31.66,58.87c-.13.75-.34,1.13-.63,1.13Z"/><path class="cls-1" d="M49.58,53.33a.94.94,0,0,1-.78-.28,2.07,2.07,0,0,1-.24-1.24V8.29A2.13,2.13,0,0,1,48.8,7a1,1,0,0,1,.78-.27h5.67A1,1,0,0,1,56,7a2.13,2.13,0,0,1,.24,1.25V25.52a.89.89,0,0,0,.14.51c.09.16.17.23.25.23H68.4c.07,0,.17-.08.27-.24a1,1,0,0,0,.16-.54V8.29a2,2,0,0,1,.25-1.23,1,1,0,0,1,.76-.29H75.6a1,1,0,0,1,.74.27,2.15,2.15,0,0,1,.23,1.25V51.81a2.09,2.09,0,0,1-.23,1.24.92.92,0,0,1-.74.28H69.84a1.54,1.54,0,0,1-.54-.08.8.8,0,0,1-.36-.44,2.66,2.66,0,0,1-.15-1V32c0-.45-.15-.68-.43-.68H56.74c-.26,0-.39.23-.39.68V51.81A2,2,0,0,1,56.09,53a1,1,0,0,1-.76.29Z"/><path class="cls-1" d="M91.25,53.33a.88.88,0,0,1-.73-.31,2.08,2.08,0,0,1-.25-1.24v-39c0-.54-.15-.81-.43-.81H83a2.52,2.52,0,0,1-.57-.05c-.12,0-.22-.14-.31-.32a2,2,0,0,1-.14-.86V8.19A1.9,1.9,0,0,1,82.25,7,1,1,0,0,1,83,6.77h22.1a1,1,0,0,1,.75.27,2,2,0,0,1,.23,1.15v2.56a1.59,1.59,0,0,1-.21,1,1.11,1.11,0,0,1-.77.21H98.44c-.28,0-.43.27-.43.81v39A2.11,2.11,0,0,1,97.76,53a1,1,0,0,1-.76.29Z"/><path class="cls-1" d="M111.75,53.33c-.63,0-.94-.53-.94-1.59v-.16l1.76-43c0-1.18.35-1.8,1-1.84h6.18a1.79,1.79,0,0,1,1,.32,2,2,0,0,1,.58,1.2l6.62,30.63a.35.35,0,0,0,.13.2.18.18,0,0,0,.2,0,.25.25,0,0,0,.1-.2L135,8.39c.23-1,.74-1.58,1.52-1.62h6.26c.63,0,.94.66.94,1.84l1.84,43v.2c0,1-.33,1.55-1,1.55h-4.3c-.63,0-1-.58-1-1.75L138,18.33c0-.13,0-.21-.12-.23s-.13,0-.15.1l-7.13,33.58c-.2,1-.65,1.55-1.33,1.55h-2.54c-.63,0-1.07-.52-1.33-1.55l-6.92-33.42c0-.13-.08-.15-.16-.06a.32.32,0,0,0,0,.19l-1.25,33.09c0,1.17-.3,1.75-.9,1.75Z"/><path class="cls-1" d="M154.86,53.33a.9.9,0,0,1-.74-.28,2.07,2.07,0,0,1-.24-1.24V8.29A2.13,2.13,0,0,1,154.12,7a.93.93,0,0,1,.74-.27h5.75a1,1,0,0,1,.75.27,2.24,2.24,0,0,1,.23,1.25V47.47c0,.47.18.71.55.71h10.17a1.07,1.07,0,0,1,.75.23,1.57,1.57,0,0,1,.23,1V52a1.66,1.66,0,0,1-.23,1.05,1,1,0,0,1-.75.24Z"/><path class="cls-1" d="M182.17,48.63a1.19,1.19,0,0,1-.94-.4,1.52,1.52,0,0,1-.35-1V45.43c0-.15,0-.3,0-.44a1.91,1.91,0,0,1,.06-.37,1.26,1.26,0,0,1,.12-.34,2.93,2.93,0,0,1,.13-.29,2.21,2.21,0,0,1,.2-.29l.19-.26a2.85,2.85,0,0,1,.24-.28l.25-.26.32-.27a2.9,2.9,0,0,0,.31-.31l8.8-9a.86.86,0,0,0,.32-.62.66.66,0,0,0-.36-.55l-8.72-8.74a5.8,5.8,0,0,0-.45-.41,4.37,4.37,0,0,1-.43-.38l-.33-.34a1.33,1.33,0,0,1-.3-.38l-.17-.39a1.46,1.46,0,0,1-.16-.5,3.37,3.37,0,0,1,0-.58V18.33a1.37,1.37,0,0,1,.35-1,1.24,1.24,0,0,1,.94-.37,1.91,1.91,0,0,1,1,.39l11.38,11.07c.6.56,1,.95,1.22,1.17a4.1,4.1,0,0,1,.64.94,2.76,2.76,0,0,1,.34,1.32v1.59c0,.17,0,.33,0,.47a1.93,1.93,0,0,1-.12.44,2.61,2.61,0,0,0-.14.37.93.93,0,0,1-.23.37,1.56,1.56,0,0,0-.24.33,1.56,1.56,0,0,1-.31.37l-.33.34-.41.39-.43.39L183.19,48.28A1.89,1.89,0,0,1,182.17,48.63Z"/></g></g></svg>